<?xml version="1.0" encoding="UTF-8"?>
<svg version="1.1" xmlns="http://www.w3.org/2000/svg" width="512" height="512">
<path d="M0 0 C8 0 8 0 10.20239258 1.37011719 C10.76079834 2.00594727 11.3192041 2.64177734 11.89453125 3.296875 C12.53430908 4.00239502 13.17408691 4.70791504 13.83325195 5.43481445 C14.81297974 6.5808313 14.81297974 6.5808313 15.8125 7.75 C16.85506958 8.91438599 16.85506958 8.91438599 17.91870117 10.10229492 C19.31661932 11.66564334 20.70587611 13.23678403 22.0859375 14.81591797 C24.6108857 17.69706422 27.20845533 20.50267594 29.8125 23.3125 C31.54203995 25.2079928 33.2712099 27.10382327 35 29 C35.93314024 30.01734324 36.86674345 31.03426201 37.80078125 32.05078125 C38.27346436 32.56535889 38.74614746 33.07993652 39.2331543 33.61010742 C40.52259184 35.01353839 41.81207519 36.41692726 43.1015625 37.8203125 C47.08877827 42.19442792 51.04061169 46.60067966 55 51 C55.33 34.17 55.66 17.34 56 0 C58.31 0 60.62 0 63 0 C63 25.08 63 50.16 63 76 C57.37450623 74.87490125 57.37450623 74.87490125 54.6953125 71.90234375 C54.11563721 71.26981689 53.53596191 70.63729004 52.9387207 69.9855957 C52.34019287 69.30972412 51.74166504 68.63385254 51.125 67.9375 C50.50004639 67.24938232 49.87509277 66.56126465 49.23120117 65.85229492 C47.47488222 63.91233264 45.73391556 61.95998507 44 60 C43.31292969 59.22398437 42.62585938 58.44796875 41.91796875 57.6484375 C40.86377342 56.44290999 39.81413112 55.23338275 38.76953125 54.01953125 C36.3911558 51.30513807 33.94491095 48.65427613 31.5 46 C28.46105508 42.69977216 25.43843789 39.39050526 22.5 36 C17.76034221 30.58324824 12.86360074 25.30574626 8 20 C7.67 38.48 7.34 56.96 7 76 C4.69 76 2.38 76 0 76 C0 50.92 0 25.84 0 0 Z " fill="#373435" transform="translate(421,215)"/>
<path d="M0 0 C14.85 0 29.7 0 45 0 C45 27.06 45 54.12 45 82 C30.97195743 80.59719574 19.17405795 76.14801946 9.640625 65.3203125 C2.37388923 55.74625552 -0.89732521 46.06172025 0 34 C0.51115766 31.57311234 1.1985269 29.35432722 2 27 C5.96 27 9.92 27 14 27 C13.835 27.928125 13.67 28.85625 13.5 29.8125 C11.80271243 42.42815987 13.78029818 53.49914286 21.28125 64.0234375 C24.56332798 67.79782717 28.53032426 70.76516213 33 73 C33 52.87 33 32.74 33 12 C24.42 12 15.84 12 7 12 C0 2 0 2 0 0 Z " fill="#373435" transform="translate(28,215)"/>
<path d="M0 0 C14.85 0 29.7 0 45 0 C43 5 43 5 38 12 C29.42 12 20.84 12 12 12 C12 32.13 12 52.26 12 73 C23.16171422 65.55885719 27.81660741 59.46566323 31.59765625 47.03515625 C32.8861354 40.51770344 32.15424571 33.49263213 31 27 C34.96 27 38.92 27 43 27 C46.27446999 36.6187556 45.43918671 45.45076881 42 55 C35.27987155 68.49359125 24.45628969 75.96080894 10.49609375 80.8828125 C6.85710375 81.86333732 3.81087759 82 0 82 C0 54.94 0 27.88 0 0 Z " fill="#373435" transform="translate(76,215)"/>
<path d="M0 0 C2.34179688 0.04174805 2.34179688 0.04174805 5 1 C6.45446184 3.1446327 7.47962658 4.99841774 8.53125 7.33203125 C8.84422028 7.98747925 9.15719055 8.64292725 9.47964478 9.3182373 C10.50415301 11.4751167 11.501977 13.64325493 12.5 15.8125 C13.20528568 17.3102353 13.9121706 18.8072185 14.62060547 20.3034668 C16.42298448 24.12233313 18.20309163 27.95108272 19.97497559 31.78417969 C21.25523711 34.55175229 22.54328115 37.31566059 23.83148193 40.07954407 C25.78422418 44.26928472 27.73384333 48.46029288 29.66210938 52.66137695 C32.60097758 59.05965992 35.66405983 65.36873758 38.89404297 71.62573242 C40 74 40 74 40 76 C35.38 76 30.76 76 26 76 C20.04296875 64.0859375 20.04296875 64.0859375 18.99755859 61.98730469 C18.09263065 60.18453586 17.16662702 58.39238471 16.23828125 56.6015625 C15 54 15 54 15 52 C4.44 52 -6.12 52 -17 52 C-17.66 53.98 -18.32 55.96 -19 58 C-19.68762646 59.52348949 -20.40792416 61.03276477 -21.1640625 62.5234375 C-21.76347656 63.71259766 -21.76347656 63.71259766 -22.375 64.92578125 C-22.7875 65.73402344 -23.2 66.54226563 -23.625 67.375 C-24.04523438 68.20644531 -24.46546875 69.03789062 -24.8984375 69.89453125 C-25.92866075 71.93156359 -26.96258821 73.96662189 -28 76 C-30.64 76 -33.28 76 -36 76 C-35.38296906 71.96301284 -34.08098343 68.82408639 -32.2265625 65.1953125 C-31.65446045 64.06601318 -31.0823584 62.93671387 -30.49291992 61.77319336 C-30.18840912 61.17860321 -29.88389832 60.58401306 -29.57015991 59.97140503 C-27.95944327 56.82481018 -26.36944323 53.66776269 -24.77734375 50.51171875 C-24.45560684 49.8750679 -24.13386993 49.23841705 -23.80238342 48.58247375 C-20.85391468 42.73734576 -18.00079357 36.84887464 -15.1875 30.9375 C-14.52862793 29.55401367 -14.52862793 29.55401367 -13.85644531 28.14257812 C-11.67998064 23.56174672 -9.51628418 18.97494892 -7.35546875 14.38671875 C-6.93692627 13.49927979 -6.51838379 12.61184082 -6.0871582 11.69750977 C-5.29826844 10.02328391 -4.51153252 8.34804091 -3.72729492 6.67163086 C-1.11044623 1.11044623 -1.11044623 1.11044623 0 0 Z M-1 20 C-2.60871674 23.01843094 -4.21113049 26.04016561 -5.8125 29.0625 C-6.26431641 29.91005859 -6.71613281 30.75761719 -7.18164062 31.63085938 C-7.62314453 32.46552734 -8.06464844 33.30019531 -8.51953125 34.16015625 C-8.92276611 34.91949463 -9.32600098 35.67883301 -9.74145508 36.46118164 C-11.28800148 39.58097524 -12.62833941 42.79945863 -14 46 C-5.75 46 2.5 46 11 46 C8.74596456 39.01760354 8.74596456 39.01760354 5.95703125 32.40234375 C5.43012695 31.29536133 5.43012695 31.29536133 4.89257812 30.16601562 C4.53615234 29.43060547 4.17972656 28.69519531 3.8125 27.9375 C3.44447266 27.16728516 3.07644531 26.39707031 2.69726562 25.60351562 C1.80287378 23.73342358 0.90211805 21.86637725 0 20 C-0.33 20 -0.66 20 -1 20 Z " fill="#373435" transform="translate(369,215)"/>
<path d="M0 0 C21.12 0 42.24 0 64 0 C64 2.31 64 4.62 64 7 C55.75 7 47.5 7 39 7 C39 29.77 39 52.54 39 76 C34.38 76 29.76 76 25 76 C25 53.23 25 30.46 25 7 C16.75 7 8.5 7 0 7 C0 4.69 0 2.38 0 0 Z " fill="#373435" transform="translate(271,215)"/>
<path d="M0 0 C21.12 0 42.24 0 64 0 C64 2.31 64 4.62 64 7 C55.75 7 47.5 7 39 7 C39 29.77 39 52.54 39 76 C34.38 76 29.76 76 25 76 C25 53.23 25 30.46 25 7 C16.75 7 8.5 7 0 7 C0 4.69 0 2.38 0 0 Z " fill="#373435" transform="translate(160,215)"/>
<path d="M0 0 C4.62 0 9.24 0 14 0 C14 25.08 14 50.16 14 76 C9.38 76 4.76 76 0 76 C0 50.92 0 25.84 0 0 Z " fill="#373435" transform="translate(240,215)"/>
</svg>
